<svg width="1440" height="3004" viewBox="0 0 1440 3004" fill="none" xmlns="http://www.w3.org/2000/svg">
<rect width="1440" height="3004" fill="white"/>
<mask id="mask0" style="mask-type:alpha" maskUnits="userSpaceOnUse" x="0" y="0" width="1440" height="1024">
<rect width="1440" height="1024" fill="white"/>
</mask>
<g mask="url(#mask0)">
<path d="M730.5 809C424.5 684.2 93.3333 811.667 -34 891L-53 1069.5L1527.5 1149.5L1516 586.5C1381.67 712.667 1036.5 933.8 730.5 809Z" fill="#ECECEC"/>
</g>
<mask id="mask1" style="mask-type:alpha" maskUnits="userSpaceOnUse" x="0" y="1024" width="1440" height="1024">
<rect y="1024" width="1440" height="1024" fill="white"/>
</mask>
<g mask="url(#mask1)">
<rect y="1024" width="1440" height="560" fill="#ECECEC"/>
<mask id="mask2" style="mask-type:alpha" maskUnits="userSpaceOnUse" x="0" y="1223" width="1440" height="672">
<rect y="1223" width="1440" height="672" fill="#C4C4C4"/>
</mask>
<g mask="url(#mask2)">
<path d="M692.5 1345C386.9 1251.8 88.1667 1288.5 -23 1318.5L-122 1909.5L1527 2010.5V1211C1376.17 1294.5 998.1 1438.2 692.5 1345Z" fill="#0089FF"/>
</g>
</g>
<mask id="mask3" style="mask-type:alpha" maskUnits="userSpaceOnUse" x="0" y="1633" width="1440" height="1371">
<rect y="1633" width="1440" height="1371" fill="white"/>
</mask>
<g mask="url(#mask3)">
<rect y="1895" width="1440" height="1109" fill="url(#paint0_linear)"/>
</g>
<defs>
<linearGradient id="paint0_linear" x1="720" y1="1895" x2="720" y2="3004" gradientUnits="userSpaceOnUse">
<stop stop-color="#0089FF"/>
<stop offset="0.880208" stop-color="white" stop-opacity="0"/>
</linearGradient>
</defs>
</svg>
